<?xml version="1.0" encoding="windows-1252"?>
<!-- Generator: Adobe Illustrator 19.2.0, SVG Export Plug-In . SVG Version: 6.00 Build 0)  -->
<svg version="1.1" xmlns="http://www.w3.org/2000/svg" xmlns:xlink="http://www.w3.org/1999/xlink" x="0px" y="0px" viewBox="0 0 48 48" enable-background="new 0 0 48 48" xml:space="preserve">
<path fill="#009688" d="M38,6H15l-9,9v23c0,2.2,1.8,4,4,4h28c2.2,0,4-1.8,4-4V10C42,7.8,40.2,6,38,6z"/>
<g>
	<path fill="#A5D6A7" d="M12,36V18.8c0-0.3,0.1-0.5,0.3-0.7l5.8-5.8c0.2-0.2,0.4-0.3,0.7-0.3H35v19H17V20.8c0-0.3,0.1-0.5,0.3-0.7   l2.8-2.8c0.2-0.2,0.4-0.3,0.7-0.3H30v9h-6v2h6c1.1,0,2-0.9,2-2v-9c0-1.1-0.9-2-2-2h-9.2c-0.8,0-1.6,0.3-2.1,0.9l-2.8,2.8   C15.3,19.3,15,20,15,20.8V31c0,1.1,0.9,2,2,2h18c1.1,0,2-0.9,2-2V12c0-1.1-0.9-2-2-2H18.8c-0.8,0-1.6,0.3-2.1,0.9l-5.8,5.8   C10.3,17.3,10,18,10,18.8V36c0,1.1,0.9,2,2,2h30v-2H12z"/>
	<path fill="#A5D6A7" d="M28,28h-6c-1.1,0-2-0.9-2-2v-4l2-2h4c1.1,0,2,0.9,2,2V28z"/>
</g>
</svg>